# xmcd
#
# Track frame offsets:
#	150
#	11159
#	20108
#	29191
#	40090
#	60024
#	71844
#	90331
#	100397
#	110710
#	124405
#	136915
#	148620
#	160821
#	171912
#	186080
#
# Disc length: 2629 seconds
#
# Revision: 0
# Processed by: cddbd v1.5.2PL0 Copyright (c) Steve Scherf et al.
# Submitted via: EasyCDDAExtractor 15.3.0.1
#
DISCID=e40a4310
DTITLE=Charlie Ryan - Meet Mr. Honky Tonk
DYEAR=2002
DGENRE=Country
TTITLE0=Meet Mr. Honky Tonk
TTITLE1=Tryin' to Walk Away My Blues
TTITLE2=Honky Tonk Baby
TTITLE3=Daddy Can I Night Herd in the Sky
TTITLE4=Spirit of the Lake
TTITLE5=My Old Home in Sunny Tennessee
TTITLE6=Stand Up and Be Counted
TTITLE7=Steel Rock
TTITLE8=Mountains of Montana
TTITLE9=Gypsy Queen
TTITLE10=Doggone Doghouse Blues
TTITLE11=Through the Mill
TTITLE12=Glittering Steel
TTITLE13=Hank Williams Goodbye
TTITLE14=Hot Rod Lincoln
TTITLE15=Side Car Cycle
EXTD=
EXTT0=
EXTT1=
EXTT2=
EXTT3=
EXTT4=
EXTT5=
EXTT6=
EXTT7=
EXTT8=
EXTT9=
EXTT10=
EXTT11=
EXTT12=
EXTT13=
EXTT14=
EXTT15=
PLAYORDER=
